<svg width="1200" height="800" viewBox="0 0 1200 800" fill="none" xmlns="http://www.w3.org/2000/svg">
<path d="M222.061 412.772H160.291V397.446H239.942C237.852 390.944 231.118 384.906 219.275 384.906H161.452C148.215 384.906 140.552 389.782 140.552 400.465V411.843C140.552 421.132 148.447 426.473 160.058 426.473H222.526V442.729H138.462C140.552 451.553 147.286 456.198 159.362 456.198H222.294C235.53 456.198 242.032 451.089 242.032 440.174V428.795C242.032 418.81 234.369 413.469 222.061 412.772V412.772ZM348.157 385.138H271.989V456.43H293.585V429.028H349.783C365.341 429.028 373.934 423.687 373.934 411.147V403.251C373.701 391.64 363.948 385.138 348.157 385.138V385.138ZM355.124 407.896C355.124 413.004 354.195 415.791 345.835 415.791H293.585L293.818 397.213H344.906C354.195 397.213 355.356 400 355.356 404.877V407.896H355.124ZM445.69 428.563H399.71L388.331 440.639H454.746L466.125 456.43H491.669L436.633 382.119L423.629 398.142L445.69 428.563ZM533.005 397.446H613.817C611.727 389.086 603.6 384.906 591.989 384.906H531.611C521.161 384.906 511.176 389.086 511.176 400.465V440.407C511.176 451.785 521.161 455.965 531.611 455.965H592.685C606.619 455.965 611.495 452.018 613.817 442.496H533.005V397.446ZM708.563 421.132V409.057H643.309V456.43H739.681V442.961H665.138V421.132H708.563ZM645.632 385.138H742.932V397.678H645.632V385.138ZM802.845 385.138H768.941L808.883 414.398C814.688 410.45 821.423 406.27 827.46 402.787L802.845 385.138ZM852.076 421.597C846.27 425.544 840.465 429.957 834.891 434.137L865.08 456.198H899.217L852.076 421.597Z" fill="#EEEEEE"/>
<path d="M1061.54 343.57C875.762 354.252 789.84 433.672 770.566 452.482L766.618 456.197H800.987C893.875 363.077 1027.4 346.589 1061.54 343.57Z" fill="#EEEEEE"/>
</svg>
